HIERARCHY
ROOT Hips
{
 OFFSET 0.000000 0.000000 0.000000
 CHANNELS 6 Xposition Yposition Zposition Yrotation Xrotation Zrotation
 JOINT Chest
 {
  OFFSET 0.000000 9.585900 0.002600
  CHANNELS 3 Yrotation Xrotation Zrotation
  JOINT Chest2
  {
   OFFSET 0.000000 9.601200 -0.005300
   CHANNELS 3 Yrotation Xrotation Zrotation
   JOINT Chest3
   {
    OFFSET 0.000000 9.561800 0.000000
    CHANNELS 3 Yrotation Xrotation Zrotation
    JOINT Chest4
    {
     OFFSET 0.000000 9.552100 0.000000
     CHANNELS 3 Yrotation Xrotation Zrotation
     JOINT Neck
     {
      OFFSET 0.000000 14.453000 0.000000
      CHANNELS 3 Yrotation Xrotation Zrotation
      JOINT Head
      {
       OFFSET 0.000000 8.936500 -0.011300
       CHANNELS 3 Yrotation Xrotation Zrotation
       End Site
       {
        OFFSET 0.000000 17.073600 -0.006000
       }
      }
     }
     JOINT RightCollar
     {
      OFFSET -2.921100 9.558500 0.000000
      CHANNELS 3 Yrotation Xrotation Zrotation
      JOINT RightShoulder
      {
       OFFSET -13.519700 0.000000 0.000000
       CHANNELS 3 Yrotation Xrotation Zrotation
       JOINT RightElbow
       {
        OFFSET 0.000000 -29.696600 0.000000
        CHANNELS 3 Yrotation Xrotation Zrotation
        JOINT RightWrist
        {
         OFFSET 0.000000 -24.004700 0.000000
         CHANNELS 3 Yrotation Xrotation Zrotation
         End Site
         {
          OFFSET 0.000000 -17.728500 0.000000
         }
        }
       }
      }
     }
     JOINT LeftCollar
     {
      OFFSET 2.921100 9.558500 0.000000
      CHANNELS 3 Yrotation Xrotation Zrotation
      JOINT LeftShoulder
      {
       OFFSET 13.519700 0.000000 0.000000
       CHANNELS 3 Yrotation Xrotation Zrotation
       JOINT LeftElbow
       {
        OFFSET 0.000000 -29.696600 0.000000
        CHANNELS 3 Yrotation Xrotation Zrotation
        JOINT LeftWrist
        {
         OFFSET 0.000000 -24.004700 0.000000
         CHANNELS 3 Yrotation Xrotation Zrotation
         End Site
         {
          OFFSET 0.000000 -17.728500 0.000000
         }
        }
       }
      }
     }
    }
   }
  }
 }
 JOINT RightHip
 {
  OFFSET -7.771700 -0.012900 -0.001300
  CHANNELS 3 Yrotation Xrotation Zrotation
  JOINT RightKnee
  {
   OFFSET 0.000000 -40.869800 0.001200
   CHANNELS 3 Yrotation Xrotation Zrotation
   JOINT RightAnkle
   {
    OFFSET 0.000000 -39.717900 0.002100
    CHANNELS 3 Yrotation Xrotation Zrotation
    JOINT RightToe
    {
     OFFSET 0.000000 -4.965400 11.033500
     CHANNELS 3 Yrotation Xrotation Zrotation
     End Site
     {
      OFFSET 0.000000 -1.423100 5.872300
     }
    }
   }
  }
 }
 JOINT LeftHip
 {
  OFFSET 7.771700 -0.012900 -0.001300
  CHANNELS 3 Yrotation Xrotation Zrotation
  JOINT LeftKnee
  {
   OFFSET 0.000000 -40.869800 0.001200
   CHANNELS 3 Yrotation Xrotation Zrotation
   JOINT LeftAnkle
   {
    OFFSET 0.000000 -39.717900 0.002100
    CHANNELS 3 Yrotation Xrotation Zrotation
    JOINT LeftToe
    {
     OFFSET 0.000000 -4.965400 11.033500
     CHANNELS 3 Yrotation Xrotation Zrotation
     End Site
     {
      OFFSET 0.000000 -1.423100 5.872300
     }
    }
   }
  }
 }
}
MOTION
Frames: 12
Frame Time: 0.008333
-16.735912 57.513246 30.333949 152.972340 -47.936876 0.660543 11.272362 22.414310 6.673485 1.616313 3.730081 0.615267 2.590553 5.947003 1.037340 9.013004 18.890432 4.413316 -1.295665 28.478819 -0.139119 -2.251465 17.099937 -0.026109 7.046002 2.505032 1.029471 39.993518 -48.172702 -20.184918 39.278794 3.619585 -0.515026 10.219524 -7.259355 -53.816215 -11.007549 -2.295720 -2.262042 -38.210842 -39.249619 17.986239 -49.310517 -3.442035 9.065217 -22.564302 -7.615285 38.812356 17.329184 -29.664709 15.431047 -8.176124 68.714156 -2.743639 0.679253 11.748535 0.353575 -0.181152 -6.664283 2.936262 -0.745250 -26.083439 11.791370 27.568317 69.465709 23.688583 -24.159141 3.069724 -2.651429 -0.593323 -0.900812 -0.269594
-16.736954 57.512688 30.337054 152.980803 -47.932439 0.649260 11.257323 22.408025 6.675624 1.597930 3.731396 0.618007 2.604410 5.947409 1.033869 9.004595 18.890740 4.414733 -1.352315 28.603020 -0.161092 -2.323318 17.326009 -0.078934 7.065010 2.508437 1.020518 40.003256 -48.166168 -20.194051 39.274966 3.618341 -0.516743 10.242259 -7.258546 -53.845086 -10.996102 -2.301468 -2.266734 -38.262270 -39.243230 18.002677 -49.157702 -3.340596 9.013928 -22.538981 -7.560825 38.797373 17.307772 -29.670511 15.440040 -8.189817 68.707902 -2.765899 0.688181 11.778667 0.358778 -0.180429 -6.686013 2.930785 -0.732138 -26.094228 11.787498 27.566879 69.459957 23.705822 -24.162593 3.082530 -2.657891 -0.531222 -0.902878 -0.260623
-16.738176 57.512293 30.340139 152.984741 -47.928577 0.642158 11.235829 22.406191 6.673697 1.589460 3.734455 0.619305 2.617781 5.944745 1.030990 8.977877 18.894475 4.420686 -1.393825 28.716686 -0.195791 -2.387759 17.533455 -0.129104 7.101417 2.511141 0.998973 40.011491 -48.158690 -20.202925 39.302765 3.611919 -0.507749 10.303708 -7.265918 -53.863599 -10.980690 -2.312396 -2.279162 -38.285863 -39.240585 18.015976 -49.015686 -3.255819 8.956846 -22.519354 -7.507785 38.779444 17.286018 -29.675185 15.452956 -8.272379 68.699888 -2.859126 0.719958 11.809571 0.364953 -0.184652 -6.708359 2.927850 -0.690998 -26.108524 11.778696 27.549998 69.453248 23.724318 -24.192745 3.095610 -2.660057 -0.532294 -0.900629 -0.250852
-16.741269 57.511640 30.342800 152.991060 -47.921844 0.643449 11.208525 22.407256 6.662445 1.592714 3.733879 0.616205 2.587565 5.948295 1.035429 8.979912 18.894624 4.414693 -1.426636 28.824192 -0.229360 -2.443061 17.724190 -0.173633 7.139085 2.512886 0.980098 40.009512 -48.156656 -20.205467 39.436865 3.612733 -0.469307 10.262956 -7.247169 -53.872278 -10.955967 -2.319477 -2.297950 -38.341736 -39.247473 18.052209 -48.873539 -3.169016 8.887707 -22.506036 -7.445337 38.751392 17.283648 -29.684360 15.445556 -8.298093 68.697318 -2.886912 0.724749 11.835876 0.369018 -0.180835 -6.727782 2.925795 -0.684873 -26.117180 11.770436 27.599033 69.440991 23.767086 -24.204142 3.107111 -2.651495 -0.537827 -0.900781 -0.249735
-16.743138 57.512337 30.344898 152.986633 -47.925560 0.646181 11.187457 22.424175 6.653425 1.611722 3.724557 0.617057 2.586371 5.948400 1.035445 8.927468 18.916755 4.416188 -1.430517 28.911226 -0.267024 -2.491322 17.900079 -0.208843 7.200758 2.500673 0.958555 40.009426 -48.156561 -20.212016 39.524802 3.616374 -0.447382 10.265753 -7.214794 -53.861755 -10.908412 -2.342700 -2.316692 -38.357758 -39.252208 18.065522 -48.783118 -3.095196 8.831729 -22.496133 -7.368869 38.708400 17.281939 -29.683648 15.447894 -8.299602 68.692406 -2.889836 0.723183 11.865204 0.368587 -0.182601 -6.749108 2.926216 -0.651715 -26.114677 11.758079 27.572263 69.434494 23.763566 -24.204830 3.103149 -2.652892 -0.532398 -0.889872 -0.244528
-16.744976 57.512734 30.347447 152.978591 -47.926754 0.648417 11.186537 22.435447 6.651212 1.607985 3.722322 0.619461 2.583610 5.949921 1.034309 8.933511 18.915919 4.413312 -1.459289 29.009608 -0.283175 -2.532753 18.064294 -0.233523 7.219252 2.501663 0.957862 40.023516 -48.159806 -20.233430 39.561235 3.620138 -0.434407 10.319909 -7.169777 -53.834484 -10.902676 -2.350230 -2.317947 -38.371105 -39.256340 18.072574 -48.722239 -3.025818 8.784402 -22.488263 -7.280203 38.654826 17.294300 -29.689797 15.452660 -8.343422 68.685743 -2.930314 0.730953 11.893394 0.374564 -0.187008 -6.767896 2.927635 -0.627649 -26.114206 11.754260 27.554000 69.429768 23.760537 -24.211582 3.100345 -2.652166 -0.528692 -0.880880 -0.242231
-16.748300 57.512761 30.349672 152.976517 -47.925227 0.653329 11.185069 22.439120 6.644672 1.604144 3.740266 0.613608 2.584196 5.956805 1.033965 8.935592 18.894515 4.414912 -1.469613 29.054199 -0.291449 -2.575002 18.273392 -0.252740 7.228495 2.503844 0.959225 40.057519 -48.163347 -20.259399 39.677275 3.632575 -0.402911 10.296078 -7.121061 -53.813037 -10.907744 -2.360088 -2.323610 -38.368730 -39.253161 18.079688 -48.685780 -2.965593 8.743226 -22.482500 -7.185111 38.597347 17.301485 -29.693108 15.453023 -8.329511 68.680686 -2.926061 0.721585 11.906429 0.385100 -0.189981 -6.774789 2.927874 -0.608484 -26.118252 11.740193 27.542818 69.426884 23.760974 -24.206787 3.104054 -2.644982 -0.535248 -0.880088 -0.245688
-16.752567 57.513577 30.350552 152.971145 -47.930539 0.668056 11.184264 22.450877 6.632199 1.609156 3.749425 0.612011 2.585761 5.961218 1.033346 8.937009 18.924995 4.407508 -1.484959 29.138001 -0.293035 -2.593088 18.397388 -0.257186 7.248086 2.468036 0.965959 40.081272 -48.173231 -20.283387 39.802369 3.651555 -0.374773 10.268190 -7.073736 -53.783882 -10.929027 -2.399979 -2.311456 -38.381002 -39.260526 18.103786 -48.650076 -2.901725 8.697003 -22.477280 -7.090040 38.539665 17.312808 -29.691215 15.443226 -8.305365 68.681780 -2.906651 0.712608 11.931598 0.389395 -0.184835 -6.796188 2.929798 -0.593141 -26.109090 11.724690 27.493447 69.427989 23.710132 -24.187754 3.101109 -2.632486 -0.532312 -0.872072 -0.249745
-16.754551 57.513928 30.352815 152.969824 -47.933052 0.663116 11.193378 22.461771 6.638758 1.612797 3.753293 0.609837 2.585225 5.961856 1.034440 8.944479 18.934414 4.404703 -1.498148 29.243449 -0.295368 -2.606100 18.517101 -0.252582 7.249781 2.449255 0.971040 40.107305 -48.178366 -20.296525 39.907182 3.666377 -0.355885 10.273042 -7.030463 -53.752911 -10.947344 -2.416265 -2.301454 -38.443457 -39.276468 18.142842 -48.596063 -2.840369 8.652691 -22.474012 -6.992556 38.468619 17.318099 -29.702064 15.446865 -8.282652 68.680560 -2.881316 0.715312 11.985734 0.386033 -0.192233 -6.840072 2.940187 -0.595939 -26.107772 11.731893 27.478561 69.433128 23.692590 -24.183412 3.103019 -2.627996 -0.525215 -0.869848 -0.250429
-16.756092 57.513841 30.355437 152.969400 -47.932710 0.654054 11.205938 22.471955 6.647182 1.611118 3.746731 0.611658 2.583686 5.960265 1.035826 8.960026 18.948275 4.401331 -1.503767 29.320971 -0.291141 -2.616859 18.661120 -0.245418 7.240125 2.431944 0.977886 40.135155 -48.179517 -20.307846 40.023492 3.675649 -0.335565 10.284684 -7.001440 -53.737639 -10.967452 -2.423987 -2.292874 -38.466939 -39.283629 18.166885 -48.579249 -2.796139 8.606957 -22.478596 -6.910687 38.414343 17.323115 -29.711222 15.451989 -8.277435 68.674380 -2.869700 0.720990 12.017106 0.385299 -0.198230 -6.861883 2.945111 -0.605730 -26.106884 11.740508 27.492663 69.432564 23.698142 -24.152896 3.100234 -2.633854 -0.550031 -0.864338 -0.238633
-16.758037 57.513866 30.357371 152.966329 -47.933560 0.651448 11.219369 22.478603 6.650218 1.608538 3.744169 0.614521 2.591795 5.969534 1.033132 8.970604 18.943625 4.404302 -1.506509 29.397484 -0.284978 -2.622917 18.803348 -0.235335 7.224669 2.423362 0.984334 40.159143 -48.179173 -20.315014 40.154647 3.677545 -0.316629 10.296669 -6.987181 -53.739410 -10.988919 -2.422575 -2.290151 -38.497869 -39.288738 18.197659 -48.573685 -2.752283 8.554292 -22.487870 -6.851135 38.383514 17.331075 -29.719217 15.457487 -8.241770 68.671797 -2.837264 0.713408 12.047137 0.390385 -0.204191 -6.884156 2.949726 -0.616026 -26.102458 11.757795 27.479002 69.432334 23.672571 -24.190756 3.095611 -2.637379 -0.529449 -0.858189 -0.236867
-16.760852 57.513709 30.358627 152.967804 -47.932768 0.652920 11.228115 22.481864 6.647773 1.619346 3.749352 0.616477 2.585738 5.967584 1.032170 8.984244 18.939244 4.408897 -1.507073 29.471832 -0.276469 -2.625538 18.941646 -0.221629 7.214686 2.426027 0.990622 40.180238 -48.178226 -20.330498 40.286908 3.668233 -0.298558 10.309770 -6.984806 -53.752150 -11.014180 -2.415564 -2.293135 -38.577365 -39.297011 18.258939 -48.558877 -2.720186 8.510019 -22.498553 -6.803703 38.355156 17.342254 -29.728088 15.457291 -8.220495 68.671724 -2.821805 0.703855 12.073785 0.397779 -0.193611 -6.906601 2.953909 -0.617523 -26.101748 11.757890 27.470211 69.430133 23.662471 -24.221331 3.089605 -2.644062 -0.542108 -0.854202 -0.236311
